<?xml version="1.0" encoding="UTF-8" standalone="no"?>
<!-- Generator: Adobe Illustrator 15.0.0, SVG Export Plug-In . SVG Version: 6.00 Build 0)  -->

<svg
   xmlns:dc="http://purl.org/dc/elements/1.1/"
   xmlns:cc="http://creativecommons.org/ns#"
   xmlns:rdf="http://www.w3.org/1999/02/22-rdf-syntax-ns#"
   xmlns:svg="http://www.w3.org/2000/svg"
   xmlns="http://www.w3.org/2000/svg"
   xmlns:sodipodi="http://sodipodi.sourceforge.net/DTD/sodipodi-0.dtd"
   xmlns:inkscape="http://www.inkscape.org/namespaces/inkscape"
   version="1.1"
   id="Layer_1"
   x="0px"
   y="0px"
   width="26px"
   height="26px"
   viewBox="0 0 26 26"
   enable-background="new 0 0 26 26"
   xml:space="preserve"
   inkscape:version="0.48.5 r10040"
   sodipodi:docname="photos12.svg"><metadata
     id="metadata19"><rdf:RDF><cc:Work
         rdf:about=""><dc:format>image/svg+xml</dc:format><dc:type
           rdf:resource="http://purl.org/dc/dcmitype/StillImage" /></cc:Work></rdf:RDF></metadata><defs
     id="defs17" /><sodipodi:namedview
     pagecolor="#ffffff"
     bordercolor="#666666"
     borderopacity="1"
     objecttolerance="10"
     gridtolerance="10"
     guidetolerance="10"
     inkscape:pageopacity="0"
     inkscape:pageshadow="2"
     inkscape:window-width="1600"
     inkscape:window-height="876"
     id="namedview15"
     showgrid="false"
     inkscape:zoom="9.0769231"
     inkscape:cx="13.220339"
     inkscape:cy="13"
     inkscape:window-x="0"
     inkscape:window-y="0"
     inkscape:window-maximized="1"
     inkscape:current-layer="Layer_1" /><rect
     fill="none"
     width="26"
     height="26"
     id="rect3" /><path
     fill="#000000"
     d="M20,7c-0.551,0-1-0.449-1-1V4c0-0.551,0.449-1,1-1h2c0.551,0,1,0.449,1,1v2c0,0.551-0.449,1-1,1H20z"
     id="path5"
     style="fill:#ffffff" /><path
     fill="#000000"
     d="M13,9.188c-0.726,0-1.396,0.213-1.973,0.563c0.18-0.056,0.367-0.093,0.564-0.093  c1.068,0,1.933,0.865,1.933,1.934c0,1.066-0.865,1.933-1.933,1.933c-1.068,0-1.933-0.866-1.933-1.933  c0-0.199,0.039-0.386,0.094-0.565C9.4,11.604,9.188,12.274,9.188,13c0,2.107,1.705,3.813,3.813,3.813  c2.105,0,3.813-1.705,3.813-3.813S15.105,9.188,13,9.188z"
     id="path7"
     style="fill:#ffffff" /><g
     id="g9"><path
       fill="#000000"
       d="M13,7c3.313,0,6,2.686,6,6s-2.688,6-6,6c-3.313,0-6-2.686-6-6S9.687,7,13,7 M13,5c-4.411,0-8,3.589-8,8   s3.589,8,8,8s8-3.589,8-8S17.411,5,13,5L13,5z"
       id="path11"
       style="fill:#ffffff" /></g><path
     d="M 22.116525,0 4.5444915,0.22033898 C 1.8517032,0.25410435 0,1.6311525 0,4.3241526 L 0,21.896187 c 0,2.692999 1.3006932,4.230254 3.9936441,4.213982 L 22.226695,26 c 2.692951,-0.01627 3.883474,-0.970136 3.883474,-3.663136 l 0,-18.0127114 C 26.110169,1.6311525 24.809314,-0.03376538 22.116525,0 z M 24,9 17.463,9 C 18.416,10.063 19,11.461 19,13 19,16.314 16.312,19 13,19 9.687,19 7,16.314 7,13 7,11.461 7.584,10.062 8.537,9 L 2,9 2,4.875 C 2,3.29 3.29,2 4.875,2 l 16.25,0 C 22.711,2 24,3.29 24,4.875 z"
     id="path13"
     inkscape:connector-curvature="0"
     style="fill:#ffffff"
     sodipodi:nodetypes="sssssssssccsssccssssc" /></svg>